# xmcd
#
# Track frame offsets: 
#        150
#        14133
#        26608
#        37763
#        48615
#        60850
#        73495
#        86325
#        97630
#        110728
#        124630
#        137103
#        150290
#        163253
#        175838
#        187418
#        198110
#        209865
#
# Disc length: 2949 seconds
#
# Revision: 7
# Processed by: cddbd v1.5.2PL0 Copyright (c) Steve Scherf et al.
# Submitted via: ExactAudioCopy v1.0b6
#
DISCID=fc0b8312
DTITLE=Hillbilly Fever! - Hillbilly Fever! Vol 1: Legends Of Western S
DTITLE=wing
DYEAR=1995
DGENRE=Western Swing
TTITLE0=Fort Worth Doughboys - Sunbonnet Sue (1932)
TTITLE1=Milton Brown and His Brownies - Taking Off (1935)
TTITLE2=Modern Mountaineers - Everybody's Truckin'  (1937)
TTITLE3=The Light Crust Doughboys - Pussy, Pussy, Pussy (1938)
TTITLE4=Cliff Bruner's Texas Wanderers - When You're Smiling (The Whol
TTITLE4=e World Smiles With You) (1938)
TTITLE5=Hank Penny and His Radio Cowboys - Won't You Ride In My Little R
TTITLE5=ed Wagon (1939)
TTITLE6=Johnnie Lee Wills and His Boys - Milk Cow Blues (1941)
TTITLE7=Dickie McBride and The Village Boys - Tulsa Twist (1941)
TTITLE8=Curly Williams and His Georgia Peach Pickers - Southern Belle (F
TTITLE8=rom Nashville, Tennessee) (1945)
TTITLE9=Bob Wills and His Texas Playboys - Faded Love (1946)
TTITLE10=Spade Cooley and His Band - Boggs Boogie (1947)
TTITLE11=Tex Williams and His Western Caravan - Artistry In Western Swin
TTITLE11=g (1947)
TTITLE12=Jesse Ashlock - My Bank Account Is Gone (1947)
TTITLE13=Leon McAuliffe and His Western Swing Band - Pan Handle Rag (194
TTITLE13=9)
TTITLE14=Wade Ray with Noel Boggs - It's All Your Fault (1953)
TTITLE15=Noel Boggs and His Day Sleepers - Steelin' Home (1953)
TTITLE16=Billy Jack Wills and His Western Swing Band - Troubles (Those L
TTITLE16=onesome Kind) (1956)
TTITLE17=Hank Thompson and The Brazos Valley Boys - Woodchopper's Ball (
TTITLE17=1958)
EXTD=
EXTT0=
EXTT1=
EXTT2=
EXTT3=
EXTT4=
EXTT5=
EXTT6=
EXTT7=
EXTT8=
EXTT9=
EXTT10=
EXTT11=
EXTT12=
EXTT13=
EXTT14=
EXTT15=
EXTT16=
EXTT17=
PLAYORDER=
